HIERARCHY
ROOT Joint1
{
	OFFSET 0.000000 0.000000 0.000000
	CHANNELS 6 Xposition Yposition Zposition Xrotation Yrotation Zrotation
	JOINT Joint2
	{
		OFFSET -0.000000 0.000000 1.456275
		CHANNELS 6 Xposition Yposition Zposition Xrotation Yrotation Zrotation
		JOINT Joint3
		{
			OFFSET -0.000000 0.000002 1.471446
			CHANNELS 6 Xposition Yposition Zposition Xrotation Yrotation Zrotation
			JOINT Joint4
			{
				OFFSET 0.625745 0.000000 0.917755
				CHANNELS 6 Xposition Yposition Zposition Xrotation Yrotation Zrotation
				JOINT Joint5
				{
					OFFSET -0.629534 0.000001 0.940221
					CHANNELS 6 Xposition Yposition Zposition Xrotation Yrotation Zrotation
					JOINT Joint6
					{
						OFFSET -0.000001 0.113772 1.960660
						CHANNELS 6 Xposition Yposition Zposition Xrotation Yrotation Zrotation
						JOINT Joint7
						{
							OFFSET -0.669733 -0.113771 0.388340
							CHANNELS 6 Xposition Yposition Zposition Xrotation Yrotation Zrotation
							End Site
							{
								OFFSET 0.005509 0.005509 0.438980
							}
						}
					}
				}
			}
		}
	}
}
MOTION
Frames: 22
Frame Time: 0.041667
0.000000 0.000000 0.000000 -0.000000 1.019410 -8.172623 -0.000000 0.000000 1.456275 -0.000001 -45.594556 0.000001 -0.000001 0.000002 1.471446 -0.000001 -1.133459 47.847661 0.625744 0.000000 0.917755 0.000006 147.578108 -0.000001 -0.629533 0.000001 0.940221 0.000001 1.709735 50.055414 -0.000001 0.113772 1.960661 -88.303868 104.776379 0.000007 -0.669733 -0.113771 0.388340 0.290970 2.344467 33.347859 
0.000000 0.000000 0.000000 -0.000000 1.019410 -7.953401 -0.000000 0.000000 1.456275 0.000001 -45.577962 -0.000001 -0.000000 0.000002 1.471446 -0.000002 -1.133456 46.561461 0.625744 0.000000 0.917755 0.000006 147.240997 0.000000 -0.629534 0.000001 0.940220 -0.000002 1.709738 48.710392 -0.000001 0.113772 1.960660 -88.303875 104.378855 0.000002 -0.669734 -0.113771 0.388340 0.299622 2.392099 36.075488 
0.000000 0.000000 0.000000 -0.000000 1.019410 -7.728350 -0.000000 0.000000 1.456275 -0.000000 -45.560937 -0.000001 -0.000000 0.000002 1.471446 -0.000001 -1.133458 45.241049 0.625744 0.000000 0.917755 0.000003 146.894898 -0.000002 -0.629534 0.000000 0.940221 -0.000000 1.709736 47.329594 -0.000001 0.113772 1.960660 -88.303875 103.970751 0.000008 -0.669733 -0.113771 0.388339 0.306138 2.441369 38.875757 
0.000000 0.000000 0.000000 -0.000000 1.019410 -7.509130 -0.000000 0.000000 1.456275 0.000000 -45.544350 -0.000000 -0.000000 0.000002 1.471446 -0.000002 -1.133454 43.954846 0.625744 0.000000 0.917755 0.000005 146.557787 -0.000002 -0.629534 0.000001 0.940221 -0.000002 1.709735 45.984573 -0.000001 0.113772 1.960660 -88.303868 103.573228 0.000004 -0.669733 -0.113771 0.388340 0.310159 2.489612 41.603570 
0.000000 0.000000 0.000000 -0.000000 1.019410 -7.295740 -0.000000 -0.000000 1.456275 0.000001 -45.528207 0.000000 -0.000000 0.000002 1.471446 -0.000000 -1.133459 42.702855 0.625745 0.000000 0.917755 0.000006 146.229624 -0.000002 -0.629534 0.000001 0.940221 -0.000002 1.709737 44.675325 -0.000001 0.113772 1.960660 -88.303868 103.186270 0.000002 -0.669733 -0.113771 0.388340 0.311859 2.536704 44.258922 
0.000000 0.000000 0.000000 -0.000000 1.019410 -7.085266 -0.000000 0.000000 1.456275 -0.000001 -45.512276 0.000001 -0.000000 0.000002 1.471446 -0.000001 -1.133460 41.467970 0.625745 0.000000 0.917755 0.000007 145.905941 -0.000001 -0.629534 0.000001 0.940221 -0.000001 1.709736 43.383965 -0.000001 0.113772 1.960661 -88.303868 102.804613 0.000013 -0.669733 -0.113771 0.388340 0.311402 2.583180 46.878098 
0.000000 0.000000 0.000000 -0.000000 1.019410 -6.874792 -0.000000 -0.000000 1.456275 -0.000000 -45.496351 0.000000 -0.000000 0.000002 1.471446 -0.000001 -1.133459 40.233082 0.625744 0.000000 0.917755 0.000002 145.582258 -0.000005 -0.629534 0.000001 0.940221 0.000001 1.709736 42.092601 -0.000001 0.113772 1.960661 -88.303875 102.422949 -0.000002 -0.669733 -0.113771 0.388340 0.308813 2.629588 49.497363 
0.000000 0.000000 0.000000 -0.000000 1.019410 -6.661402 -0.000000 -0.000000 1.456275 -0.000000 -45.480205 0.000000 -0.000000 0.000002 1.471446 -0.000001 -1.133458 38.981099 0.625744 0.000000 0.917755 0.000002 145.254109 -0.000001 -0.629534 0.000001 0.940221 -0.000002 1.709737 40.783353 -0.000001 0.113772 1.960661 -88.303868 102.035998 0.000004 -0.669733 -0.113771 0.388340 0.304025 2.676467 52.153019 
0.000000 0.000000 0.000000 -0.000000 1.019410 -6.442181 -0.000000 -0.000000 1.456275 0.000000 -45.463621 0.000000 -0.000000 0.000002 1.471446 -0.000001 -1.133457 37.694899 0.625744 0.000001 0.917755 0.000005 144.916984 -0.000003 -0.629534 0.000001 0.940221 -0.000002 1.709736 39.438339 -0.000001 0.113772 1.960660 -88.303862 101.638474 0.000006 -0.669733 -0.113771 0.388340 0.296846 2.724344 54.881342 
0.000000 0.000000 0.000000 -0.000000 1.019410 -6.217131 -0.000000 0.000000 1.456275 -0.000000 -45.446590 -0.000000 -0.000000 0.000002 1.471446 -0.000001 -1.133462 36.374497 0.625745 0.000000 0.917755 0.000005 144.570899 -0.000001 -0.629534 0.000001 0.940220 0.000000 1.709736 38.057541 -0.000001 0.113772 1.960661 -88.303862 101.230377 0.000001 -0.669733 -0.113771 0.388341 0.287112 2.773080 57.682341 
0.000000 0.000000 0.000000 -0.000000 1.019410 -5.997910 -0.000000 0.000000 1.456275 -0.000000 -45.430003 -0.000001 -0.000000 0.000002 1.471446 -0.000001 -1.133459 35.088297 0.625744 0.000000 0.917755 0.000005 144.233788 -0.000004 -0.629533 0.000001 0.940221 0.000000 1.709735 36.712526 -0.000001 0.113772 1.960660 -88.303862 100.832853 -0.000002 -0.669733 -0.113771 0.388340 0.275349 2.820043 60.410906 
0.000000 0.000000 0.000000 -0.000000 1.019410 -5.799097 -0.000000 0.000000 1.456275 -0.000000 -45.414963 -0.000000 -0.000001 0.000002 1.471445 -0.000001 -1.133460 33.921824 0.625744 0.000000 0.917755 0.000006 143.928041 0.000000 -0.629533 0.000001 0.940221 0.000001 1.709736 35.492702 -0.000001 0.113772 1.960660 -88.303862 100.472329 0.000007 -0.669733 -0.113771 0.388340 0.262755 2.862108 62.885572 
0.000000 0.000000 0.000000 -0.000000 1.019410 -5.629900 -0.000000 0.000000 1.456275 0.000000 -45.402156 0.000000 -0.000000 0.000002 1.471446 -0.000000 -1.133457 32.929121 0.625745 0.000000 0.917755 0.000006 143.667838 -0.000004 -0.629534 0.000001 0.940221 -0.000001 1.709736 34.454592 -0.000001 0.113772 1.960661 -88.303868 100.165510 0.000015 -0.669733 -0.113771 0.388340 0.250612 2.897450 64.991682 
0.000000 0.000000 0.000000 -0.000000 1.019410 -5.478066 -0.000000 0.000000 1.456275 -0.000001 -45.390668 0.000001 -0.000000 0.000002 1.471446 -0.000001 -1.133458 32.038286 0.625745 0.000000 0.917755 0.000008 143.434328 0.000002 -0.629533 0.000001 0.940221 -0.000002 1.709737 33.523026 -0.000001 0.113772 1.960660 -88.303868 99.890185 0.000014 -0.669733 -0.113771 0.388340 0.238615 2.928767 66.881725 
0.000000 0.000000 0.000000 -0.000000 1.019410 -5.325975 -0.000000 -0.000000 1.456275 -0.000000 -45.379155 0.000000 -0.000000 0.000002 1.471445 -0.000001 -1.133457 31.145949 0.625744 0.000000 0.917755 0.000006 143.200448 -0.000001 -0.629533 0.000001 0.940221 0.000000 1.709735 32.589875 -0.000001 0.113772 1.960660 -88.303875 99.614389 0.000013 -0.669733 -0.113771 0.388340 0.225566 2.959723 68.775005 
0.000000 0.000000 0.000000 -0.000000 1.019410 -5.156013 -0.000000 0.000000 1.456275 -0.000000 -45.366297 0.000000 -0.000000 0.000002 1.471445 -0.000000 -1.133462 30.148749 0.625744 0.000000 0.917755 0.000006 142.939071 -0.000002 -0.629534 0.000001 0.940221 -0.000001 1.709737 31.547076 -0.000001 0.113772 1.960660 -88.303868 99.306190 0.000007 -0.669734 -0.113771 0.388340 0.209783 2.993787 70.890848 
0.000000 0.000000 0.000000 -0.000000 1.019410 -4.956121 -0.000000 0.000000 1.456275 -0.000000 -45.351169 -0.000000 -0.000000 0.000002 1.471446 -0.000000 -1.133460 28.975957 0.625744 0.000000 0.917755 0.000003 142.631671 0.000001 -0.629534 0.000001 0.940221 -0.000000 1.709737 30.320644 -0.000001 0.113772 1.960660 -88.303868 98.943719 0.000012 -0.669733 -0.113771 0.388340 0.189622 3.033071 73.379366 
0.000000 0.000000 0.000000 -0.000000 1.019410 -4.736504 -0.000000 0.000000 1.456275 0.000001 -45.334554 -0.000000 -0.000000 0.000002 1.471446 -0.000000 -1.133457 27.687425 0.625745 0.000000 0.917755 0.000006 142.293932 -0.000004 -0.629533 0.000001 0.940221 -0.000000 1.709736 28.973188 -0.000001 0.113772 1.960660 -88.303862 98.545471 0.000017 -0.669733 -0.113771 0.388339 0.165523 3.075178 76.113579 
0.000000 0.000000 0.000000 -0.000000 1.019410 -4.512928 -0.000000 0.000000 1.456275 0.000000 -45.317639 -0.000000 -0.000000 0.000002 1.471446 -0.000001 -1.133458 26.375682 0.625744 0.000001 0.917754 0.000003 141.950114 -0.000001 -0.629533 0.000001 0.940221 0.000000 1.709736 27.601447 -0.000001 0.113772 1.960661 -88.303862 98.140051 0.000016 -0.669733 -0.113771 0.388340 0.138956 3.116815 78.897188 
0.000000 0.000000 0.000000 -0.000000 1.019410 -4.297225 -0.000000 -0.000000 1.456275 -0.000000 -45.301315 -0.000000 -0.000000 0.000002 1.471446 -0.000001 -1.133458 25.110115 0.625745 0.000000 0.917755 0.000004 141.618399 -0.000001 -0.629534 0.000001 0.940221 0.000001 1.709736 26.278007 -0.000001 0.113772 1.960660 -88.303875 97.748907 0.000010 -0.669733 -0.113771 0.388341 0.111429 3.155719 81.582908 
0.000000 0.000000 0.000000 -0.000000 1.019410 -4.085480 -0.000000 0.000000 1.456275 0.000000 -45.285298 -0.000000 -0.000001 0.000002 1.471446 -0.000001 -1.133460 23.867780 0.625745 0.000000 0.917755 0.000005 141.292763 0.000003 -0.629533 0.000001 0.940221 0.000001 1.709734 24.978852 -0.000001 0.113772 1.960660 -88.303855 97.364934 0.000027 -0.669733 -0.113771 0.388340 0.082659 3.192615 84.219456 
0.000000 0.000000 0.000000 -0.000000 1.019410 -3.869843 -0.000000 0.000000 1.456275 0.000000 -45.268978 -0.000000 -0.000000 0.000002 1.471446 -0.000000 -1.133455 22.602607 0.625744 0.000000 0.917755 0.000004 140.961157 0.000000 -0.629534 0.000001 0.940221 -0.000001 1.709736 23.655817 -0.000001 0.113772 1.960660 -88.303862 96.973906 0.000021 -0.669733 -0.113771 0.388340 0.051647 3.228792 86.904588 
